<?xml version="1.0" encoding="utf-8"?>
<!-- Generator: Adobe Illustrator 23.0.3, SVG Export Plug-In . SVG Version: 6.00 Build 0)  -->
<svg version="1.1" id="Layer_1" xmlns="http://www.w3.org/2000/svg" xmlns:xlink="http://www.w3.org/1999/xlink" x="0px" y="0px"
	 viewBox="0 0 1000 1000" style="enable-background:new 0 0 1000 1000;" xml:space="preserve">
<style type="text/css">
	.st0{fill:#FFFFFF;}
	.st1{fill:#1f6bad;}
</style>
<path class="st0" d="M498.3,699.5c-0.3,0-0.5,0-0.8,0l0,0C497.8,699.5,498,699.5,498.3,699.5z"/>
<g>
	<g>
		<path class="st1" d="M-0.5-0.5v1001h1001V-0.5H-0.5z M502.5,746.7c-0.3,0-0.6,0-1,0c-0.3,0-0.6,0-1,0
			c-126.4-1.7-166-170.1-166-317.1c0-146.7,74.6-173.4,166-173.4h1.9c92,0,166,26.7,166,173.4C668.5,576.6,628.8,745,502.5,746.7z"
			/>
	</g>
</g>
<path class="st0" d="M499,699.5L499,699.5c-0.3,0-0.5,0-0.8,0C498.5,699.5,498.8,699.5,499,699.5z"/>
</svg>
